<svg width="40" height="40" viewBox="0 0 40 40" fill="none" xmlns="http://www.w3.org/2000/svg">
<path d="M25.2246 13.5747L23.113 11.2918V2.44898H23.6734V0H23.113H16.8892H16.3264V2.44898H16.8892V11.2893L14.7752 13.5746C13.294 15.1759 12.4529 17.2403 12.3898 19.4134H12.3856V19.6772V35.4097V37.1723C12.3856 38.7316 13.6541 39.9999 15.2131 39.9999H24.7867C26.3457 39.9999 27.6142 38.7314 27.6142 37.1723V19.6772C27.6143 17.4078 26.7656 15.2405 25.2246 13.5747ZM14.8345 21.8623H20.653V23.7551H14.8345V21.8623ZM14.8345 26.2041H20.653V32.9607H14.8345V26.2041ZM25.1654 37.1724H25.1653C25.1653 37.3813 24.9955 37.551 24.7867 37.551H15.2131C15.0044 37.551 14.8345 37.3812 14.8345 37.1724V35.4097H23.102V19.4134H14.8407C14.9028 17.8589 15.5118 16.3848 16.5731 15.2376L19.3383 12.2483V2.44898H20.6641V12.2509L23.427 15.2377C24.5481 16.4497 25.1654 18.0263 25.1654 19.6773V37.1724Z" fill="black"/>
</svg>
