<svg width="64" height="64" viewBox="0 0 64 64" fill="none" xmlns="http://www.w3.org/2000/svg">
<path d="M50.8629 64H13.1371L13.0191 62.0383C12.9131 60.2774 10.4224 18.8614 10.2564 14.5564L10.1728 12.389H53.8271L53.7435 14.5564C53.5775 18.8614 51.0866 60.2774 50.9808 62.0383L50.8629 64Z" fill="#A3A0A0"/>
<path d="M50.8629 64H32L32.002 12.389H53.8273L53.7436 14.5564C53.5776 18.8614 51.0868 60.2774 50.9809 62.0383L50.8629 64Z" fill="#838181"/>
<path d="M34.0869 20.9934H29.913V55.9972H34.0869V20.9934Z" fill="#838181"/>
<path d="M34.087 20.9934H32V55.9972H34.087V20.9934Z" fill="#535353"/>
<path d="M19.1263 21.158L20.9495 56.103L25.1174 55.8855L23.2942 20.9405L19.1263 21.158Z" fill="#838181"/>
<path d="M38.8847 55.885L43.0526 56.1024L44.8758 21.1574L40.7079 20.94L38.8847 55.885Z" fill="#535353"/>
<path d="M28.6334 7.65237L24.4594 7.652L24.46 0H39.5406V7.65212H35.3666V4.17387H28.6336L28.6334 7.65237Z" fill="#A3A0A0"/>
<path d="M32.002 0H39.5406V7.65212H35.3666V4.17387H32L32.002 0Z" fill="#838181"/>
<path d="M56.3479 16.5629H7.65213V5.56525H56.3478L56.3479 16.5629Z" fill="#838181"/>
<path d="M56.3479 16.5629H32.002V5.56525H56.3479V16.5629Z" fill="#535353"/>
</svg>
