<svg width="40" height="40" viewBox="0 0 40 40" fill="none" xmlns="http://www.w3.org/2000/svg">
<path d="M25.8125 10.4375C27.75 10.4375 29.375 8.875 29.375 6.875C29.375 5.1875 26.9375 1.125 26.4375 0.3125C26.3125 0.125 26.0625 0 25.8125 0C25.5625 0 25.375 0.125 25.25 0.3125C24.75 1.125 22.3125 5.1875 22.3125 6.875C22.25 8.875 23.875 10.4375 25.8125 10.4375ZM25.8125 2.0625C26.8125 3.8125 28 6.0625 28 6.9375C28 8.125 27 9.125 25.8125 9.125C24.625 9.125 23.6875 8.125 23.6875 6.875C23.6875 6.0625 24.8125 3.8125 25.8125 2.0625Z" fill="black"/>
<path d="M32.4375 17.875C32.8125 17.875 33.125 17.5625 33.125 17.1875C33.125 16.8125 32.8125 16.5 32.4375 16.5C32.0625 16.5 31.75 16.8125 31.75 17.1875C31.75 17.5625 32.0625 17.875 32.4375 17.875Z" fill="black"/>
<path d="M35.4375 21.375H31.0625V20.625C31.5 20.8125 31.9375 20.875 32.4375 20.875C34.5 20.875 36.125 19.1875 36.125 17.1875C36.125 15.1875 34.4375 13.5 32.4375 13.5C31.9375 13.5 31.5 13.5625 31.0625 13.75V13.6875C31.0625 12.5625 30.125 11.625 29 11.625H22.6875C21.5 11.625 20.625 12.5625 20.625 13.6875V21.375H19.8125C19.5625 19.9375 18.375 18.8125 16.9375 18.5V2.5C16.9375 2.125 16.625 1.8125 16.25 1.8125H5.625C5.3125 1.8125 5 2.0625 4.9375 2.375L4.25 7.375C3.75 10.625 3.75 13.9375 4.25 17.1875L4.9375 22.125C5 22.5 5.25 22.75 5.625 22.75H15.5V39.3125C15.5 39.6875 15.8125 40 16.1875 40H35.4375C35.8125 40 36.125 39.6875 36.125 39.3125V22.0625C36.125 21.6875 35.8125 21.375 35.4375 21.375ZM32.4375 14.875C33.6875 14.875 34.75 15.9375 34.75 17.1875C34.75 18.4375 33.6875 19.5 32.4375 19.5C31.9375 19.5 31.4375 19.3125 31.0625 19.0625V15.375C31.4375 15.0625 31.9375 14.875 32.4375 14.875ZM22 13.6875C22 13.3125 22.3125 13 22.6875 13H29C29.375 13 29.6875 13.3125 29.6875 13.6875V15V19.375V21.375H22V13.6875ZM18.375 21.375H16.875V19.9375C17.5625 20.1875 18.125 20.6875 18.375 21.375ZM5.5625 17C5.125 13.875 5.125 10.6875 5.5625 7.5625L6.1875 3.1875H15.5V19.125V21.375H6.1875L5.5625 17ZM34.75 38.625H16.875V22.75H19.125H21.25H30.3125H34.6875V38.625H34.75Z" fill="black"/>
<path d="M25.8125 14.125C25.4375 14.125 25.125 14.4375 25.125 14.8125C25.125 15.1875 25.4375 15.5 25.8125 15.5C26.1875 15.5 26.5 15.1875 26.5 14.8125C26.5 14.4375 26.1875 14.125 25.8125 14.125Z" fill="black"/>
<path d="M25.8125 18.8125C25.4375 18.8125 25.125 19.125 25.125 19.5C25.125 19.875 25.4375 20.1875 25.8125 20.1875C26.1875 20.1875 26.5 19.875 26.5 19.5C26.5 19.125 26.1875 18.8125 25.8125 18.8125Z" fill="black"/>
<path d="M28.1875 16.5C27.8125 16.5 27.5 16.8125 27.5 17.1875C27.5 17.5625 27.8125 17.875 28.1875 17.875C28.5625 17.875 28.875 17.5625 28.875 17.1875C28.875 16.8125 28.5625 16.5 28.1875 16.5Z" fill="black"/>
<path d="M23.5 16.5C23.125 16.5 22.8125 16.8125 22.8125 17.1875C22.8125 17.5625 23.125 17.875 23.5 17.875C23.875 17.875 24.1875 17.5625 24.1875 17.1875C24.1875 16.8125 23.875 16.5 23.5 16.5Z" fill="black"/>
</svg>
