<svg width="40" height="40" viewBox="0 0 40 40" fill="none" xmlns="http://www.w3.org/2000/svg">
<path d="M25.2611 24.7167C25.7034 24.0105 25.9382 23.1943 25.9389 22.3611C25.9389 20.5056 25.2945 18.9278 23.6389 17.9667C22.7091 17.4329 21.6735 17.1095 20.6052 17.0193C19.5369 16.9291 18.4617 17.0742 17.4556 17.4444C16.7468 17.6841 16.1008 18.0798 15.5653 18.6024C15.0298 19.1249 14.6184 19.761 14.3614 20.4637C14.1045 21.1663 14.0085 21.9178 14.0805 22.6625C14.1526 23.4072 14.3909 24.1263 14.7778 24.7667C14.9453 25.0271 15.0604 25.3177 15.1167 25.6222C15.1088 25.8143 15.0635 26.003 14.9833 26.1778C14.8925 26.3913 14.838 26.6185 14.8222 26.85C14.8542 27.1589 15.001 27.4444 15.2335 27.6502C15.466 27.856 15.7673 27.9669 16.0778 27.9611C16.8778 28.0056 17.0445 28.1722 17.0945 28.9389C17.11 28.9885 17.1373 29.0336 17.1741 29.0704C17.2108 29.1071 17.256 29.1345 17.3056 29.15C17.5788 29.1972 17.8564 29.214 18.1333 29.2C18.4056 29.2 18.5333 29.2722 18.5722 29.5444C18.5722 29.6333 18.6945 29.7667 18.7722 29.7722C18.9968 29.7773 19.2215 29.7662 19.4445 29.7389C19.4445 29.55 19.4445 29.4 19.4778 29.2333H20.5556C20.5556 29.4222 20.5556 29.5833 20.5889 29.75L21.4 29.7889C21.4207 29.7233 21.4374 29.6565 21.45 29.5889C21.45 29.2722 21.6333 29.1722 21.95 29.2C22.2043 29.2035 22.4585 29.1905 22.7111 29.1611C22.8889 29.1611 22.9778 29.0833 22.95 28.8944C22.8445 28.2 23.3333 28.0111 23.8333 27.9611C24.0995 27.946 24.361 27.8839 24.6056 27.7778C24.7523 27.7054 24.8812 27.6015 24.9831 27.4734C25.085 27.3454 25.1574 27.1965 25.1951 27.0373C25.2328 26.8781 25.2348 26.7125 25.2011 26.5524C25.1674 26.3923 25.0987 26.2416 25 26.1111C24.906 25.9421 24.8764 25.7447 24.9167 25.5556C24.9933 25.2617 25.1091 24.9795 25.2611 24.7167ZM18.1945 25.2722C17.8896 25.388 17.5614 25.4287 17.2375 25.391C16.9135 25.3533 16.6035 25.2383 16.3333 25.0556C16.175 24.9096 16.0495 24.7317 15.965 24.5337C15.8805 24.3357 15.839 24.1219 15.8432 23.9067C15.8474 23.6914 15.8972 23.4795 15.9894 23.2849C16.0815 23.0903 16.2139 22.9174 16.3778 22.7778C16.6415 22.6212 16.9433 22.5405 17.25 22.5444C17.7263 22.5559 18.1975 22.646 18.6445 22.8111C18.7667 22.8457 18.8809 22.904 18.9806 22.9828C19.0803 23.0616 19.1635 23.1592 19.2254 23.2701C19.2873 23.3811 19.3267 23.5031 19.3414 23.6293C19.3562 23.7555 19.3459 23.8834 19.3111 24.0056C19.2815 24.309 19.158 24.5957 18.9579 24.8257C18.7577 25.0557 18.4909 25.2176 18.1945 25.2889V25.2722ZM20.9722 27.1722C20.8958 27.2468 20.7959 27.2926 20.6895 27.3017C20.5831 27.3108 20.4769 27.2827 20.3889 27.2222C20.2764 27.1292 20.1349 27.0783 19.9889 27.0783C19.8429 27.0783 19.7014 27.1292 19.5889 27.2222C19.4996 27.2581 19.4034 27.2738 19.3074 27.268C19.2113 27.2623 19.1177 27.2352 19.0333 27.1889C18.9667 27.1214 18.9184 27.038 18.8931 26.9466C18.8679 26.8552 18.8664 26.7588 18.8889 26.6667C19.0939 26.1854 19.3296 25.7178 19.5945 25.2667C19.65 25.1722 19.8389 25.15 19.9611 25.1C19.9611 25.1 19.9611 25.1389 19.9611 25.1611C20.2333 25.0667 20.3611 25.2333 20.4722 25.4333C20.5833 25.6333 20.7556 25.9333 20.8889 26.1889C20.9747 26.3384 21.033 26.5021 21.0611 26.6722C21.083 26.7592 21.0874 26.8497 21.074 26.9384C21.0607 27.027 21.0298 27.1122 20.9833 27.1889L20.9722 27.1722ZM24 24.6333C23.852 24.8899 23.6337 25.0989 23.3709 25.2357C23.1082 25.3725 22.8118 25.4314 22.5167 25.4056C21.9611 25.3333 21.3222 25.2889 20.9667 24.7111C20.7981 24.421 20.6904 24.0997 20.65 23.7667C20.6254 23.58 20.6619 23.3904 20.7541 23.2261C20.8462 23.0619 20.989 22.9319 21.1611 22.8556C21.8355 22.5262 22.6035 22.4418 23.3333 22.6167C23.5408 22.6701 23.7222 22.7963 23.8445 22.9722C24.0281 23.2075 24.1412 23.49 24.1707 23.787C24.2002 24.084 24.1449 24.3832 24.0111 24.65L24 24.6333Z" fill="#120000"/>
<path d="M26.9389 10.5556C26.9389 8.5889 26.9389 7.45001 26.9389 5.55556C26.9509 5.37557 26.9222 5.19518 26.8548 5.02782C26.7875 4.86046 26.6833 4.71043 26.55 4.5889C26.4354 4.49568 26.2922 4.44469 26.1444 4.44445H13.9222C13.7363 4.43762 13.555 4.50337 13.4167 4.62779C13.2939 4.75501 13.2001 4.90725 13.1416 5.07409C13.0831 5.24093 13.0613 5.41843 13.0778 5.59445C13.1111 7.46668 13.0778 8.60556 13.0778 10.5945C11.7281 10.5945 10.4337 11.1306 9.47939 12.085C8.52504 13.0393 7.98889 14.3337 7.98889 15.6833V30.4667C7.98888 31.8135 8.52274 33.1053 9.4735 34.0592C10.4242 35.0131 11.7143 35.5512 13.0611 35.5556H26.95C28.2997 35.5556 29.594 35.0194 30.5484 34.0651C31.5027 33.1107 32.0389 31.8163 32.0389 30.4667V15.6611C32.0411 14.9905 31.9107 14.3261 31.6553 13.706C31.3998 13.0859 31.0243 12.5225 30.5504 12.048C30.0764 11.5736 29.5134 11.1974 28.8936 10.9413C28.2738 10.6852 27.6095 10.5541 26.9389 10.5556ZM22.9111 6.28334H25.1333V9.20556H22.9111V6.28334ZM18.9667 6.28334H21.1889V9.20556H18.9667V6.28334ZM15 6.28334H17.2222V9.20556H15V6.28334ZM29.8056 30.4667C29.8055 30.621 29.7944 30.7751 29.7722 30.9278C29.7007 31.361 29.5308 31.7721 29.2756 32.1294C29.0204 32.4867 28.6866 32.7807 28.3 32.9889C27.8827 33.217 27.4144 33.3355 26.9389 33.3333H13.05C12.3789 33.3339 11.7289 33.099 11.2132 32.6696C10.6974 32.2402 10.3487 31.6434 10.2278 30.9833C10.196 30.813 10.1811 30.6399 10.1833 30.4667V15.6611C10.1819 15.2825 10.2553 14.9074 10.3993 14.5573C10.5433 14.2071 10.7552 13.889 11.0226 13.621C11.2901 13.353 11.6078 13.1406 11.9577 12.9959C12.3075 12.8512 12.6825 12.7771 13.0611 12.7778H26.95C27.7108 12.7778 28.4405 13.0796 28.979 13.6171C29.5175 14.1545 29.8208 14.8837 29.8222 15.6445V30.4667H29.8056Z" fill="#120000"/>
</svg>
