<svg width="24" height="24" viewBox="0 0 24 24" fill="none" xmlns="http://www.w3.org/2000/svg">
<path d="M23.7888 19.9718L13.2592 2.5095C12.9931 2.06817 12.5153 1.79831 12 1.79831C11.4846 1.79831 11.0068 2.06812 10.7407 2.5095L0.211216 19.9718C-0.0626273 20.426 -0.0707367 20.9925 0.190076 21.4543C0.450888 21.9161 0.940123 22.2016 1.47047 22.2016H22.5295C23.0598 22.2016 23.5491 21.916 23.8099 21.4543C24.0707 20.9925 24.0626 20.426 23.7888 19.9718Z" fill="#E53935"/>
<path d="M12 1.79843C11.4846 1.79843 11.0068 2.06824 10.7407 2.50962L0.211216 19.9719C-0.0626273 20.4261 -0.0707367 20.9926 0.190076 21.4543C0.450888 21.9162 0.940123 22.2017 1.47047 22.2017H12V1.79843Z" fill="#EF5350"/>
<path d="M20.8747 20.2871H3.14569C2.97736 20.2871 2.82173 20.1976 2.73703 20.0522C2.65233 19.9067 2.65139 19.7271 2.73445 19.5808L11.5889 3.9857C11.6729 3.83781 11.8298 3.74635 11.9999 3.74631H12C12.17 3.74631 12.327 3.83753 12.411 3.98532L21.2856 19.5804C21.3689 19.7267 21.368 19.9064 21.2834 20.052C21.1987 20.1976 21.043 20.2871 20.8747 20.2871ZM3.95794 19.3414H20.0615L12.0006 5.17609L3.95794 19.3414Z" fill="#120000"/>
<path d="M12.0156 19.3414H3.95794L12.0006 5.17613L12.0001 3.7464H11.9999C11.8298 3.74645 11.6729 3.83785 11.5889 3.98579L2.7345 19.5807C2.65139 19.7271 2.65237 19.9067 2.73708 20.0521C2.82178 20.1976 2.97741 20.287 3.14573 20.287H12.0156V19.3413H12.0156V19.3414Z" fill="#660000"/>
<path d="M13.0952 17.6664C13.0952 18.245 12.6013 18.753 12.0227 18.753C11.4018 18.753 10.936 18.245 10.936 17.6664C10.936 17.0737 11.4017 16.5797 12.0227 16.5797C12.6012 16.5797 13.0952 17.0736 13.0952 17.6664ZM12.8271 14.985C12.8271 15.4225 12.3473 15.6059 12.0085 15.6059C11.5569 15.6059 11.1759 15.4225 11.1759 14.985C11.1759 13.3057 10.9784 10.8925 10.9784 9.21312C10.9784 8.66276 11.43 8.35226 12.0086 8.35226C12.5589 8.35226 13.0247 8.66272 13.0247 9.21312C13.0246 10.8925 12.8271 13.3057 12.8271 14.985Z" fill="black"/>
</svg>
