<svg width="40" height="40" viewBox="0 0 40 40" fill="none" xmlns="http://www.w3.org/2000/svg">
<g clip-path="url(#clip0_27_411)">
<path d="M32.1086 14.533C32.0291 17.4194 30.8242 19.8292 29.4181 22.2125C28.094 24.429 26.0444 25.8749 24.1218 27.4452C22.8904 28.4489 21.5717 29.3413 20.3165 30.3132C19.9609 30.589 19.6517 30.9198 19.4002 31.293C17.8246 33.626 16.4184 36.0358 15.9153 38.8693C15.7193 39.9709 14.8401 40.3046 13.9106 39.7246C13.7764 39.6574 13.6547 39.5678 13.5505 39.4598C12.6025 38.2867 11.5564 37.1771 10.7514 35.9113C9.94638 34.6455 9.36909 33.2182 8.71765 31.8517C7.72195 29.7703 7.72989 27.6147 8.26482 25.4141C9.03542 22.2364 10.7117 19.5882 12.8832 17.2049C13.855 16.1457 14.8851 15.1341 15.8464 14.0642C16.4528 13.3943 16.9454 12.6237 17.5571 11.9457C18.9288 10.4628 19.2228 8.58526 19.5326 6.71833C19.7603 5.3413 19.2016 4.19731 18.3277 3.18043C17.9358 2.7223 17.4909 2.3039 17.1308 1.82194C16.9746 1.64876 16.8764 1.43118 16.8498 1.19952C16.8232 0.967868 16.8696 0.733691 16.9825 0.529648C17.0987 0.331196 17.2749 0.174769 17.4857 0.0829159C17.6966 -0.00893735 17.9311 -0.0314723 18.1556 0.0185595C21.1797 0.495223 24.0477 1.38499 26.5634 3.20956C27.8194 4.07862 28.8344 5.25216 29.5134 6.62035C30.1707 7.89918 30.7473 9.21788 31.24 10.5687C31.661 11.8425 31.8279 13.2062 32.1086 14.533ZM21.9053 3.7074C22.5409 5.18506 22.4773 6.62035 22.2761 8.04769C21.9901 10.0762 21.3995 11.9696 20.0755 13.6591C18.9399 15.1797 17.6727 16.5975 16.2887 17.8961C14.5957 19.4172 13.2058 21.2447 12.192 23.2824C11.5757 24.58 11.1255 25.9502 10.852 27.3605C10.341 29.7438 11.4346 31.7988 12.5574 33.7955C12.8779 34.3675 13.1533 34.9977 13.8815 35.1831C16.0318 30.6071 17.9649 28.4303 21.4975 25.9941C22.4916 25.2953 23.4497 24.5467 24.3681 23.7511C26.4567 21.9629 27.9681 19.5954 28.711 16.9481C29.8338 13.1374 28.5786 9.77957 26.4336 6.66272C25.9133 5.89371 25.2448 5.23623 24.4673 4.72878C23.6897 4.22132 22.8187 3.87409 21.9053 3.7074Z" fill="#120000"/>
<path d="M21.9053 3.7074C22.8176 3.87345 23.6877 4.21961 24.4647 4.72567C25.2418 5.23172 25.9102 5.88752 26.431 6.65477C28.5786 9.77161 29.8338 13.1294 28.711 16.948C27.9696 19.5947 26.4601 21.9621 24.3734 23.7511C23.455 24.5467 22.4969 25.2953 21.5028 25.9941C17.9702 28.4303 16.0371 30.6071 13.8868 35.1831C13.1533 34.9977 12.8779 34.3674 12.5627 33.7954C11.4399 31.7988 10.3462 29.7544 10.8573 27.3605C11.1308 25.9502 11.581 24.58 12.1973 23.2824C13.2102 21.2419 14.6002 19.4116 16.2939 17.8881C17.678 16.5896 18.9452 15.1718 20.0808 13.6511C21.4048 11.9616 21.9901 10.0682 22.2761 8.0265C22.4773 6.60445 22.5409 5.17181 21.9053 3.7074Z" fill="white"/>
</g>
<defs>
<clipPath id="clip0_27_411">
<rect width="40" height="40" fill="white"/>
</clipPath>
</defs>
</svg>
