<svg width="32" height="32" viewBox="0 0 32 32" fill="none" xmlns="http://www.w3.org/2000/svg">
<path d="M17.0125 1.8075L20.3775 9.4825C20.5041 9.77134 20.7059 10.0209 20.9618 10.2052C21.2177 10.3894 21.5184 10.5016 21.8325 10.53L30.03 11.265C30.9575 11.4 31.3275 12.5375 30.655 13.1925L24.48 18.38C23.98 18.8 23.7525 19.46 23.89 20.0975L25.685 28.5C25.8425 29.4225 24.875 30.1275 24.045 29.69L16.89 25.5C16.6202 25.3416 16.3129 25.2581 16 25.2581C15.6871 25.2581 15.3799 25.3416 15.11 25.5L7.95502 29.6875C7.12752 30.1225 6.15752 29.42 6.31502 28.4975L8.11002 20.095C8.24502 19.4575 8.02002 18.7975 7.52002 18.3775L1.34252 13.195C0.672523 12.5425 1.04252 11.4025 1.96752 11.2675L10.165 10.5325C10.4791 10.5041 10.7798 10.3919 11.0357 10.2077C11.2917 10.0234 11.4935 9.77384 11.62 9.485L14.985 1.81C15.4025 0.97 16.5975 0.97 17.0125 1.8075Z" fill="#FDD835"/>
<path d="M16.7675 9.9425L16.1975 4.2875C16.175 3.9725 16.11 3.4325 16.615 3.4325C17.015 3.4325 17.2325 4.265 17.2325 4.265L18.9425 8.805C19.5875 10.5325 19.3225 11.125 18.7 11.475C17.985 11.875 16.93 11.5625 16.7675 9.9425Z" fill="#FFFF8D"/>
<path d="M23.82 17.8775L28.725 14.05C28.9675 13.8475 29.405 13.525 29.055 13.1575C28.7775 12.8675 28.0275 13.285 28.0275 13.285L23.735 14.9625C22.455 15.405 21.605 16.06 21.53 16.885C21.4325 17.985 22.42 18.8325 23.82 17.8775Z" fill="#F4B400"/>
</svg>
